<?xml version="1.0" standalone="no"?>
<!DOCTYPE svg PUBLIC "-//W3C//DTD SVG 20010904//EN"
 "http://www.w3.org/TR/2001/REC-SVG-20010904/DTD/svg10.dtd">
<svg version="1.0" xmlns="http://www.w3.org/2000/svg"
 width="700.000000pt" height="700.000000pt" viewBox="0 0 700.000000 700.000000"
 preserveAspectRatio="xMidYMid meet">
<metadata>
Created by potrace 1.14, written by Peter Selinger 2001-2017
</metadata>
<g transform="translate(0.000000,700.000000) scale(0.100000,-0.100000)"
fill="#000000" stroke="none">
<path d="M3278 6995 c-1 -1 -42 -5 -89 -9 -47 -4 -95 -8 -105 -10 -10 -2 -48
-7 -84 -12 -36 -4 -67 -8 -70 -9 -3 -1 -25 -5 -50 -9 -25 -4 -101 -21 -170
-38 -69 -16 -135 -31 -147 -34 -40 -8 -264 -84 -367 -126 -216 -86 -478 -226
-676 -362 -88 -60 -75 -51 -215 -161 -461 -367 -833 -871 -1055 -1426 -66
-165 -142 -407 -165 -530 -3 -13 -14 -69 -25 -124 -42 -211 -55 -370 -55 -650
0 -194 7 -329 20 -406 2 -13 6 -46 9 -74 17 -146 65 -366 123 -555 69 -228
222 -568 343 -763 30 -48 60 -95 65 -105 24 -42 133 -191 208 -285 147 -182
310 -348 497 -504 102 -84 305 -233 320 -233 5 0 10 -4 10 -10 0 -5 4 -10 10
-10 5 0 40 -19 77 -43 268 -171 711 -350 1048 -423 74 -16 211 -41 274 -50 25
-3 57 -8 71 -10 163 -25 682 -25 842 1 13 2 46 7 73 10 71 10 87 13 115 18 14
3 43 8 65 12 115 21 314 74 455 122 558 189 1087 540 1480 982 36 41 70 79 76
85 29 30 185 242 240 326 122 187 240 409 315 597 66 163 147 422 175 558 16
75 54 300 60 350 4 33 9 76 11 95 8 70 10 517 3 595 -15 159 -21 210 -25 225
-2 8 -7 35 -10 60 -9 69 -33 183 -65 310 -191 762 -663 1464 -1306 1942 -443
329 -997 563 -1524 643 -25 4 -53 9 -62 11 -9 1 -43 6 -75 9 -32 4 -76 9 -98
11 -45 6 -541 14 -547 9z m429 -319 c661 -38 1304 -294 1833 -729 121 -100
340 -323 444 -452 83 -104 221 -305 278 -405 179 -314 306 -657 372 -1005 35
-184 50 -364 50 -585 0 -288 -14 -419 -79 -730 -20 -96 -102 -358 -140 -445
-7 -16 -25 -59 -40 -95 -99 -236 -316 -588 -471 -766 -11 -12 -38 -44 -61 -71
-119 -140 -303 -310 -489 -450 -75 -58 -328 -223 -340 -223 -2 0 -35 -17 -72
-38 -37 -21 -116 -60 -177 -86 -60 -27 -123 -55 -140 -62 -85 -38 -427 -140
-530 -159 -58 -10 -179 -29 -255 -39 -155 -21 -516 -28 -665 -12 -116 12 -159
17 -185 21 -14 2 -42 7 -64 10 -389 62 -826 228 -1166 444 -230 146 -368 258
-570 460 -436 437 -740 1004 -859 1601 -20 98 -21 104 -26 145 -3 22 -10 67
-15 100 -41 262 -26 697 35 1005 9 41 17 84 19 95 48 246 233 707 372 927 301
475 626 803 1070 1082 82 52 306 169 384 201 25 10 63 26 85 35 294 124 649
205 995 226 58 3 106 7 107 8 4 3 195 -2 300 -8z"/>
<path d="M2689 5336 c-2 -2 -33 -7 -69 -10 -719 -74 -1285 -520 -1446 -1140
-16 -60 -20 -77 -29 -126 -3 -14 -7 -36 -10 -50 -24 -119 -23 -346 1 -530 29
-225 135 -481 278 -674 249 -337 651 -552 1126 -604 135 -15 520 -7 631 13 13
2 69 11 124 19 56 9 134 22 174 31 40 8 76 15 81 15 5 0 14 -17 21 -37 32
-102 119 -256 188 -337 298 -347 755 -468 1366 -361 217 38 205 34 227 84 44
102 157 427 158 452 0 10 -11 19 -27 23 -16 3 -37 8 -49 11 -16 5 -25 -3 -49
-47 -127 -236 -269 -365 -455 -413 -68 -18 -248 -25 -330 -13 -271 39 -488
196 -612 443 -36 70 -85 212 -97 282 -6 32 -14 69 -17 83 -14 57 -13 395 2
460 7 36 16 81 20 100 16 95 81 241 147 330 56 77 82 103 158 160 143 107 300
154 514 153 349 -3 537 -129 634 -425 13 -38 24 -68 26 -68 22 0 104 23 101
28 -2 4 -7 34 -10 67 -4 33 -9 67 -11 75 -2 8 -6 40 -10 70 -3 30 -7 66 -9 80
-5 26 -17 147 -20 189 -1 14 -8 28 -16 32 -17 9 -219 46 -300 54 -30 4 -62 9
-70 12 -28 9 -365 11 -440 2 -314 -38 -568 -155 -761 -348 -159 -160 -268
-370 -299 -576 -5 -38 -12 -81 -14 -95 -3 -14 -5 -40 -5 -58 -2 -71 -189 -218
-349 -273 -113 -39 -203 -52 -367 -51 -415 0 -763 195 -971 542 -83 138 -168
370 -189 515 -4 28 -9 59 -11 70 -5 26 -13 95 -19 165 -6 67 -6 296 -1 330 2
14 7 54 10 90 7 74 7 76 34 190 87 366 287 633 581 780 83 42 208 84 279 95
20 3 62 9 92 14 83 13 323 6 426 -13 348 -63 521 -219 642 -577 15 -46 32 -84
37 -84 6 0 38 7 72 14 l63 14 -5 41 c-3 22 -7 52 -10 66 -3 14 -9 61 -15 105
-6 44 -12 90 -15 103 -2 13 -7 58 -11 100 -3 42 -7 79 -9 82 -2 3 -6 42 -10
88 -4 46 -8 91 -10 100 -2 9 -4 22 -4 28 -1 6 -34 16 -73 22 -40 6 -84 14 -98
17 -21 4 -76 14 -229 40 -14 3 -52 7 -85 11 -34 3 -74 8 -91 11 -37 6 -480 14
-486 9z"/>
</g>
</svg>
