<svg xmlns="http://www.w3.org/2000/svg" viewBox="0 0 1551.63 1551.63"><defs><style>.a{fill:#fff;}</style></defs><path class="a" d="M775.82,0C347.34,0,0,347.34,0,775.82s347.34,775.81,775.82,775.81,775.81-347.34,775.81-775.81S1204.29,0,775.82,0Zm.5,1482.52c-390,0-706.21-316.18-706.21-706.2S386.29,70.11,776.32,70.11s706.2,316.18,706.2,706.21S1166.34,1482.52,776.32,1482.52Z"/><path class="a" d="M863.59,886.46c-14.41,49.38-41.16,123.46-56.59,155.36-29.84,6.17-110.09,24.69-188.29,24.69-245.9,0-371.42-163.59-371.42-343.65,0-209.89,159.47-355,389.94-355,88.49,0,160.51,18.52,194.46,23.66,4.12,46.3,11.32,108,19.55,159.48l-31.89,7.2c-20.58-68.93-45.27-111.12-97.75-132.72-26.75-12.35-68.93-19.55-108-19.55C443.8,406,354.29,531.49,354.29,701.26c0,198.57,102.89,326.15,269.57,326.15,104.94,0,156.39-48.35,208.86-151.24Z"/><path class="a" d="M1222.75,1088.12c-10.4,35.64-29.7,89.09-40.84,112.11-21.53,4.45-79.44,17.82-135.86,17.82-177.44,0-268-118-268-248,0-151.45,115.08-256.14,281.38-256.14,63.85,0,115.82,13.37,140.32,17.08,3,33.41,8.17,78,14.11,115.08l-23,5.19c-14.84-49.74-32.66-80.18-70.53-95.77-19.3-8.91-49.74-14.11-78-14.11-122.5,0-187.1,90.58-187.1,213.08,0,143.29,74.25,235.35,194.52,235.35,75.73,0,112.85-34.89,150.72-109.13Z"/></svg>